<svg width="24" height="24" viewBox="0 0 24 24" fill="none" xmlns="http://www.w3.org/2000/svg">
<path fill-rule="evenodd" clip-rule="evenodd" d="M12.0001 3.7069C14.8919 3.7069 15.2313 3.71943 16.3743 3.76956C17.4313 3.81551 18.0028 3.98679 18.3853 4.133C18.8923 4.32517 19.2532 4.55075 19.6313 4.91838C20.0095 5.286 20.2458 5.63691 20.4392 6.12986C20.5853 6.50165 20.7657 7.05726 20.813 8.08493C20.8646 9.19615 20.8774 9.52618 20.8774 12.3376C20.8774 15.1491 20.8646 15.4791 20.813 16.5904C20.7657 17.618 20.5896 18.1736 20.4392 18.5454C20.2415 19.0384 20.0095 19.3893 19.6313 19.7569C19.2532 20.1245 18.8923 20.3543 18.3853 20.5423C18.0028 20.6843 17.4313 20.8598 16.3743 20.9057C15.2313 20.9559 14.8919 20.9684 12.0001 20.9684C9.1083 20.9684 8.76885 20.9559 7.62588 20.9057C6.56885 20.8598 5.99736 20.6885 5.61494 20.5423C5.10791 20.3501 4.74697 20.1245 4.36885 19.7569C3.99072 19.3893 3.75439 19.0384 3.56104 18.5454C3.41494 18.1736 3.23447 17.618 3.18721 16.5904C3.13564 15.4791 3.12275 15.1491 3.12275 12.3376C3.12275 9.52618 3.13564 9.19615 3.18721 8.08493C3.23447 7.05726 3.41064 6.50165 3.56104 6.12986C3.75869 5.63691 3.99072 5.286 4.36885 4.91838C4.74697 4.55075 5.10791 4.32099 5.61494 4.133C5.99736 3.99097 6.56885 3.81551 7.62588 3.76956C8.76885 3.71525 9.1083 3.7069 12.0001 3.7069ZM12.0001 1.8103C9.06103 1.8103 8.6915 1.82284 7.53564 1.87297C6.38408 1.9231 5.59775 2.10273 4.91025 2.36173C4.19697 2.6291 3.59541 2.99254 2.99385 3.57739C2.39229 4.16225 2.02275 4.75128 1.74346 5.44057C1.47705 6.10897 1.29229 6.87345 1.24072 7.99721C1.18916 9.11678 1.17627 9.47605 1.17627 12.3335C1.17627 15.1909 1.18916 15.5502 1.24072 16.6739C1.29229 17.7935 1.47705 18.558 1.74346 19.2306C2.01846 19.924 2.39229 20.5089 2.99385 21.0937C3.59541 21.6786 4.20127 22.0378 4.91025 22.3094C5.59775 22.5684 6.38408 22.748 7.53994 22.7982C8.6958 22.8483 9.06104 22.8608 12.0044 22.8608C14.9478 22.8608 15.313 22.8483 16.4688 22.7982C17.6204 22.748 18.4067 22.5684 19.0985 22.3094C19.8118 22.042 20.4134 21.6786 21.0149 21.0937C21.6165 20.5089 21.986 19.9198 22.2653 19.2306C22.5317 18.5621 22.7165 17.7977 22.7681 16.6739C22.8196 15.5502 22.8325 15.1951 22.8325 12.3335C22.8325 9.47187 22.8196 9.11678 22.7681 7.99303C22.7165 6.87345 22.5317 6.10897 22.2653 5.43639C21.9903 4.74292 21.6165 4.15807 21.0149 3.57322C20.4134 2.98836 19.8075 2.6291 19.0985 2.35756C18.411 2.09855 17.6247 1.91892 16.4688 1.86879C15.3087 1.82284 14.9392 1.8103 12.0001 1.8103ZM12.0001 6.92776C8.93213 6.92776 6.43994 9.34654 6.43994 12.3335C6.43994 15.3204 8.93213 17.7392 12.0001 17.7392C15.0681 17.7392 17.5603 15.3162 17.5603 12.3335C17.5603 9.35072 15.0681 6.92776 12.0001 6.92776ZM12.0001 15.8426C10.0063 15.8426 8.39072 14.2718 8.39072 12.3335C8.39072 10.3951 10.0063 8.82435 12.0001 8.82435C13.9938 8.82435 15.6095 10.3951 15.6095 12.3335C15.6095 14.2718 13.9938 15.8426 12.0001 15.8426ZM19.0768 6.71472C19.0768 7.41149 18.4958 7.97633 17.7791 7.97633C17.0624 7.97633 16.4814 7.41149 16.4814 6.71472C16.4814 6.01795 17.0624 5.45311 17.7791 5.45311C18.4958 5.45311 19.0768 6.01795 19.0768 6.71472Z" fill="#D4D7E6"/>
</svg>
