<svg width="24" height="24" viewBox="0 0 24 24" fill="none" xmlns="http://www.w3.org/2000/svg">
<path d="M22 5.65402C21.2639 6.00538 20.4741 6.24367 19.6442 6.35005C20.4915 5.80346 21.1402 4.93648 21.4476 3.90659C20.6527 4.41277 19.7754 4.78032 18.8406 4.97957C18.092 4.11932 17.0271 3.5835 15.8461 3.5835C13.5803 3.5835 11.7431 5.56249 11.7431 8.00191C11.7431 8.34788 11.7794 8.6858 11.8494 9.00892C8.44001 8.82446 5.41684 7.06492 3.39347 4.39123C3.03977 5.04283 2.83856 5.80208 2.83856 6.61256C2.83856 8.14596 3.56343 9.49895 4.66324 10.2905C3.99085 10.2663 3.35847 10.0671 2.80484 9.73586V9.79106C2.80484 11.9316 4.21958 13.7181 6.09546 14.1247C5.75177 14.2243 5.38935 14.2795 5.01442 14.2795C4.74948 14.2795 4.49327 14.2512 4.24206 14.1974C4.76445 15.9542 6.27919 17.2318 8.07387 17.2668C6.67037 18.4516 4.90069 19.1556 2.97856 19.1556C2.64739 19.1556 2.32118 19.1341 2 19.0951C3.81592 20.3511 5.97177 21.0835 8.28883 21.0835C15.8362 21.0835 19.9617 14.3495 19.9617 8.50946L19.9479 7.93731C20.754 7.31799 21.4513 6.53987 22 5.65402Z" fill="#D4D7E6"/>
</svg>
